<?xml version="1.0" standalone="no"?>
<!DOCTYPE svg PUBLIC "-//W3C//DTD SVG 20010904//EN"
 "http://www.w3.org/TR/2001/REC-SVG-20010904/DTD/svg10.dtd">
<svg version="1.0" xmlns="http://www.w3.org/2000/svg"
 width="592.000000pt" height="592.000000pt" viewBox="0 0 592.000000 592.000000"
 preserveAspectRatio="xMidYMid meet">
<metadata>
Created by potrace 1.11, written by Peter Selinger 2001-2013
</metadata>
<g transform="translate(0.000000,592.000000) scale(0.100000,-0.100000)"
fill="#000000" stroke="none">
<path d="M3035 5141 c-128 -33 -155 -43 -196 -73 -43 -32 -219 -263 -219 -288
0 -5 -4 -10 -8 -10 -11 0 -82 -150 -93 -198 -5 -20 -28 -116 -50 -212 -22 -96
-42 -182 -43 -190 -50 -217 -58 -304 -43 -500 4 -52 10 -129 13 -170 2 -41 7
-100 9 -130 8 -99 18 -340 14 -340 -2 0 -67 19 -144 41 -77 23 -147 41 -155
41 -147 -7 -421 -91 -485 -149 -11 -10 -38 -31 -60 -48 -107 -79 -159 -141
-230 -270 -111 -204 -135 -248 -178 -338 -67 -138 -77 -199 -73 -440 4 -205 5
-211 52 -262 11 -11 44 -49 74 -85 30 -36 60 -69 66 -75 6 -5 33 -35 60 -66
161 -183 187 -210 197 -200 6 6 17 7 26 2 9 -5 40 -12 70 -16 30 -4 61 -8 70
-10 14 -2 96 -10 221 -20 25 -2 83 -7 130 -12 47 -4 135 -7 197 -7 l112 0 93
96 c51 52 140 147 198 209 200 216 184 202 222 185 239 -105 245 -107 378
-121 36 -3 76 -8 90 -10 216 -31 536 -19 638 26 50 21 170 116 307 241 22 20
51 46 65 58 14 12 54 47 89 78 34 31 66 59 70 62 13 10 72 131 77 158 3 15 10
47 15 72 6 25 10 68 10 95 0 67 -45 246 -65 261 -9 6 -16 16 -16 21 0 11 -56
64 -103 99 l-29 20 79 55 c43 30 87 59 98 65 47 26 155 95 215 137 89 62 225
209 405 439 27 34 52 65 55 68 3 3 19 24 37 46 l32 42 -23 63 c-13 35 -26 71
-29 79 -3 8 -31 84 -61 169 -31 85 -60 159 -65 164 -9 9 -97 25 -218 42 -26 3
-59 8 -73 10 -14 2 -56 8 -95 14 -38 6 -92 13 -119 16 -27 3 -52 8 -56 10 -3
2 -49 7 -100 10 -93 7 -191 -8 -238 -36 -10 -5 -51 -20 -92 -33 -87 -28 -216
-73 -245 -85 -11 -5 -49 -19 -85 -31 -36 -12 -78 -28 -95 -35 -16 -7 -77 -29
-135 -49 -111 -38 -118 -37 -121 14 -3 61 2 123 20 243 6 34 12 80 16 102 3
22 9 64 14 94 11 71 6 160 -14 241 -9 36 -18 75 -20 86 -43 197 -92 320 -157
384 -84 84 -185 180 -189 179 -2 0 -53 -13 -114 -28z"/>
</g>
</svg>
